PathFileType	4	(X/Y/Z)	C:/Users/dbak576/Desktop/Duncan Bakke Modelling Files/H30s1/Static_H30s1.trc	
DataRate	CameraRate	NumFrames	NumMarkers	Units	OrigDataRate	OrigDataStartFrame	OrigNumFrames	
200.00	200.00	5	63	mm	200.00	1369	360	
Frame#	Time	LFHD			RFHD			LBHD			RBHD			C7			T10			CLAV			RBack			LASI			RASI			LPSI			RPSI			RACR1			RUA1			RElbow			RElbowM			RFA1			RWRR			RWRU			RCAR			LACR1			LUA1			LElbow			LElbowM			LFA1			LWRR			LWRU			LCAR			RTH1			RTH3			RTH2			RTH4			RLFC			RMFC			RTB1			RTB3			RTB2			RTB4			RLMAL			RMMAL			RMT1			RMT5			RToe			LTH1			LTH3			LTH2			LTH4			LLFC			LMFC			LTB1			LTB3			LTB2			LTB4			LLMAL			LMMAL			LCAL			LMT1			LMT5			LToe			RCAL			STRN			*61			*62			
		X1	Y1	Z1	X2	Y2	Z2	X3	Y3	Z3	X4	Y4	Z4	X5	Y5	Z5	X6	Y6	Z6	X7	Y7	Z7	X8	Y8	Z8	X9	Y9	Z9	X10	Y10	Z10	X11	Y11	Z11	X12	Y12	Z12	X13	Y13	Z13	X14	Y14	Z14	X15	Y15	Z15	X16	Y16	Z16	X17	Y17	Z17	X18	Y18	Z18	X19	Y19	Z19	X20	Y20	Z20	X21	Y21	Z21	X22	Y22	Z22	X23	Y23	Z23	X24	Y24	Z24	X25	Y25	Z25	X26	Y26	Z26	X27	Y27	Z27	X28	Y28	Z28	X29	Y29	Z29	X30	Y30	Z30	X31	Y31	Z31	X32	Y32	Z32	X33	Y33	Z33	X34	Y34	Z34	X35	Y35	Z35	X36	Y36	Z36	X37	Y37	Z37	X38	Y38	Z38	X39	Y39	Z39	X40	Y40	Z40	X41	Y41	Z41	X42	Y42	Z42	X43	Y43	Z43	X44	Y44	Z44	X45	Y45	Z45	X46	Y46	Z46	X47	Y47	Z47	X48	Y48	Z48	X49	Y49	Z49	X50	Y50	Z50	X51	Y51	Z51	X52	Y52	Z52	X53	Y53	Z53	X54	Y54	Z54	X55	Y55	Z55	X56	Y56	Z56	X57	Y57	Z57	X58	Y58	Z58	X59	Y59	Z59	X60	Y60	Z60	X61	Y61	Z61	X62	Y62	Z62	X63	Y63	Z63	

91	0.450	-42.01916	-340.80814	1588.39526	57.43189	-334.09656	1592.26294	-54.59749	-494.52722	1554.30786	89.56983	-482.91156	1565.04150	15.77945	-517.95593	1425.55273	18.88030	-547.55798	1197.39270	17.63370	-392.46713	1343.70459	86.61129	-570.92261	1281.31042	-96.85876	-343.82822	920.21332	155.49602	-351.71640	939.12897	-25.41496	-524.76703	965.23407	74.08321	-525.33563	964.98474	162.12408	-491.80707	1384.66162	299.13760	-476.62051	1327.95239	452.60681	-429.03293	1302.80969	421.97070	-371.72250	1272.66638	578.98083	-403.93079	1341.07019	674.57227	-346.83154	1400.06519	691.18683	-337.03516	1333.97913	754.15326	-327.27719	1385.44446	-117.55277	-484.02011	1395.38611	-260.64578	-489.85376	1333.54626	-405.88080	-452.37460	1296.20996	-391.95609	-399.43210	1260.71179	-536.78894	-406.27249	1337.56763	-621.99524	-346.08728	1399.51843	-633.89795	-318.91449	1338.69946	-699.35968	-325.54855	1389.77393	241.64482	-411.24826	775.93433	224.09177	-422.58575	604.87311	211.08585	-362.45383	690.07532	232.31532	-417.72028	687.90320	213.08542	-432.47455	457.11963	89.74713	-468.51862	435.17654	196.86826	-415.62039	348.45694	201.99338	-431.03882	176.24980	241.01538	-469.01413	267.91592	200.79456	-422.58957	261.91388	225.60211	-487.05099	68.63183	145.16771	-470.66458	80.31347	156.55936	-347.65158	34.50534	245.06393	-379.98807	24.56800	184.61853	-289.66388	26.04492	-175.22534	-408.92722	761.12836	-162.08440	-431.02423	590.94690	-149.20631	-365.15421	669.80103	-171.19258	-420.49472	675.38965	-156.85320	-452.33218	452.00082	-27.03067	-473.25024	428.65424	-107.28506	-414.56265	346.87094	-118.35929	-430.00937	177.15584	-171.89302	-443.50266	266.99091	-113.35870	-425.89053	261.25793	-171.10606	-485.21130	69.58308	-91.07029	-468.41278	79.24889	-130.74315	-535.92957	33.44596	-111.03592	-342.64682	29.90908	-193.17484	-376.26703	24.93109	-140.03365	-283.59021	25.12977	186.55923	-535.45325	38.89695	19.06732	-341.87946	1221.91113						 
92	0.455	-42.03139	-340.79889	1588.42053	57.45822	-334.06049	1592.29565	-54.42234	-494.41425	1554.21082	89.57367	-482.90799	1565.04407	15.78008	-517.95728	1425.52258	18.86361	-547.51605	1197.39355	17.59540	-392.40555	1343.68140	86.61932	-570.90027	1281.32532	-96.83430	-343.79080	920.18146	155.50656	-351.71744	939.08929	-25.38592	-524.71436	965.23511	74.07475	-525.34369	964.98987	162.06804	-491.83633	1384.64221	299.10217	-476.60211	1327.94006	452.59268	-429.01392	1302.83508	421.97073	-371.72336	1272.66663	578.99255	-403.91486	1341.08142	674.41418	-346.73535	1400.14526	691.18927	-337.03430	1333.99805	754.14691	-327.25253	1385.45874	-117.54691	-484.01526	1395.38196	-260.67575	-489.82309	1333.59619	-405.96744	-452.37759	1296.21765	-391.95657	-399.41940	1260.70984	-536.77966	-406.26550	1337.61450	-622.07153	-346.12473	1399.58899	-633.96893	-319.06494	1338.70667	-699.37988	-325.52783	1389.83191	241.68300	-411.23807	775.95874	224.10976	-422.58945	604.84943	211.14873	-362.46786	690.10852	232.31488	-417.71030	687.91809	213.43213	-432.36032	457.25873	89.76569	-468.47345	435.19098	196.85040	-415.61307	348.43701	202.03391	-431.04965	176.23546	241.25978	-468.86475	267.92239	200.78282	-422.62100	261.89151	225.54854	-487.09027	68.62628	145.14250	-470.71246	80.34531	156.59947	-347.64795	34.46795	245.06413	-380.02057	24.53397	184.62854	-289.67136	26.03932	-175.23483	-408.90143	761.13312	-162.10606	-431.01602	590.95184	-149.19907	-365.11255	669.78918	-171.18112	-420.50192	675.37903	-156.86258	-452.32217	451.98804	-27.10494	-473.31451	428.65790	-107.26921	-414.58902	346.86636	-118.33313	-430.04202	177.08714	-171.86978	-443.47873	266.95242	-113.39799	-425.79794	261.12173	-171.09624	-485.18362	69.59073	-91.08932	-468.32385	79.22987	-130.74956	-535.95319	33.44606	-110.94688	-342.61411	29.83935	-193.15808	-376.26428	24.90133	-140.03450	-283.59119	25.12912	186.54869	-535.49176	38.92376	18.95608	-341.77899	1221.89404						 
93	0.460	-42.00884	-340.80441	1588.41760	57.46378	-334.05609	1592.30396	-54.54058	-494.49966	1554.26257	89.55804	-482.92709	1565.01599	15.80908	-517.92645	1425.52026	18.89021	-547.48749	1197.38953	17.65356	-392.46722	1343.66040	86.67142	-570.88342	1281.31445	-96.80163	-343.76392	920.16193	155.54382	-351.71048	939.10168	-25.36473	-524.70758	965.21613	74.16702	-525.27771	964.93939	162.43591	-491.61261	1384.73865	299.11230	-476.59714	1327.91772	452.59158	-429.00540	1302.81360	421.98474	-371.70416	1272.68738	579.00116	-403.90546	1341.09937	674.38422	-346.70667	1400.15784	691.19012	-337.03278	1333.99634	754.16327	-327.27945	1385.51160	-117.56248	-484.00284	1395.37378	-260.64670	-489.77530	1333.60059	-405.97327	-452.38870	1296.25391	-391.94824	-399.37274	1260.71558	-536.76367	-406.19125	1337.63574	-622.04407	-346.06461	1399.59143	-633.96228	-318.98611	1338.71704	-699.39087	-325.50586	1389.88135	241.70569	-411.22647	775.96075	224.12523	-422.55728	604.85437	211.20416	-362.48990	690.07489	232.44864	-417.99716	688.08716	213.50748	-432.48203	457.35089	89.76582	-468.49603	435.13763	196.84964	-415.61609	348.43420	202.01570	-431.05759	176.19795	241.27138	-468.84775	267.90775	200.78267	-422.61972	261.90027	225.55548	-487.16281	68.82540	145.16460	-470.68707	80.31812	156.59966	-347.64798	34.46312	245.03461	-380.05237	24.55570	184.58698	-289.68332	26.03463	-175.22581	-408.85898	761.13049	-162.09227	-431.01727	590.95062	-149.18329	-365.11038	669.77533	-171.22397	-420.44128	675.47205	-156.87027	-452.32590	452.00400	-27.23619	-473.44278	428.69641	-107.23381	-414.61926	346.82675	-118.36195	-430.04987	177.08171	-171.88289	-443.49789	266.94888	-113.38731	-425.89755	261.21756	-171.10265	-485.21259	69.58840	-91.09743	-468.41934	79.24464	-130.73405	-535.91931	33.44275	-111.01432	-342.63522	29.88576	-193.16560	-376.23987	24.89240	-140.01251	-283.66364	25.03319	186.75636	-535.15680	38.69681	18.92858	-341.75928	1221.89209						 
94	0.465	-42.00412	-340.76605	1588.43298	57.51168	-333.99738	1592.29712	-54.62041	-494.50397	1554.30103	89.59253	-482.91940	1565.02051	15.82338	-517.91931	1425.50476	18.89562	-547.48608	1197.38892	17.66825	-392.47183	1343.65869	86.66180	-570.85352	1281.31470	-96.80071	-343.72522	920.15546	155.54665	-351.70975	939.10382	-25.33754	-524.62408	965.20392	74.16843	-525.24182	964.97308	162.27924	-491.78009	1384.85107	299.13345	-476.61246	1327.94006	452.63513	-429.06918	1302.79236	422.04422	-371.75677	1272.69812	579.03009	-403.88422	1341.10986	674.58392	-346.74930	1400.15979	691.20959	-336.95547	1334.04590	754.19940	-327.23489	1385.54285	-117.49805	-483.95218	1395.37805	-260.58554	-489.77463	1333.58386	-405.94962	-452.31006	1296.27283	-391.94199	-399.36371	1260.70532	-536.74121	-406.15808	1337.69055	-622.00836	-346.00958	1399.57190	-633.90582	-318.91580	1338.77808	-699.28394	-325.42969	1389.86121	241.72787	-411.22241	775.93134	224.17413	-422.56641	604.86176	211.15808	-362.44666	690.06549	232.49283	-418.04385	688.10223	213.50833	-432.51553	457.32330	89.75058	-468.51590	435.17374	196.85306	-415.61639	348.43076	202.04224	-431.06747	176.20404	241.26743	-468.84741	267.90851	200.81389	-422.63226	261.88226	225.59546	-487.07468	68.61139	145.16913	-470.71545	80.32233	156.66870	-347.70163	34.38267	245.06964	-380.01227	24.55334	184.62059	-289.65692	26.07379	-175.20236	-408.84909	761.12781	-162.09663	-431.01205	590.94305	-149.14676	-365.06546	669.76434	-171.24818	-420.43100	675.47882	-156.84947	-452.27914	451.96951	-27.24862	-473.46393	428.69968	-107.24076	-414.60104	346.82520	-118.33561	-430.08173	177.04764	-171.87733	-443.50760	266.96741	-113.34608	-425.90573	261.23019	-171.09068	-485.18738	69.59658	-91.04455	-468.42685	79.22955	-130.70926	-535.91235	33.43414	-111.04252	-342.66016	29.87672	-193.16644	-376.25290	24.89149	-140.00682	-283.60434	25.10025	186.62151	-535.40845	38.84019	19.00348	-341.78027	1221.90137						 
95	0.470	-41.98310	-340.75925	1588.42871	57.48641	-334.00400	1592.32434	-54.44791	-494.38474	1554.22058	89.60111	-482.91428	1565.02258	15.85195	-517.90332	1425.52271	18.89320	-547.48730	1197.38904	17.67162	-392.41629	1343.63477	86.63522	-570.85938	1281.29224	-96.78516	-343.72458	920.15509	155.56285	-351.69492	939.08197	-25.31871	-524.64301	965.19891	74.07384	-525.27100	964.98407	162.12326	-491.81378	1384.66748	299.11938	-476.56528	1327.91833	452.64548	-429.07175	1302.79431	422.06140	-371.79202	1272.71033	579.06458	-403.87262	1341.13159	674.61035	-346.71286	1400.18530	691.21045	-336.94934	1334.04797	754.20050	-327.19708	1385.58911	-117.55614	-483.95840	1395.38818	-260.63358	-489.72125	1333.61597	-405.95355	-452.25720	1296.27759	-391.92947	-399.32190	1260.71887	-536.73499	-406.10791	1337.69080	-622.01611	-345.94290	1399.59448	-633.91449	-318.91223	1338.77856	-699.34778	-325.44107	1389.91272	241.74918	-411.23010	775.96838	224.15964	-422.54639	604.86145	211.20685	-362.48627	690.05634	232.34280	-417.73398	687.89691	213.46428	-432.36856	457.24677	89.76421	-468.47595	435.19193	196.89462	-415.61316	348.43411	202.04573	-431.06537	176.20419	241.27296	-468.83817	267.86292	200.82652	-422.63177	261.88010	225.56905	-487.09216	68.58453	145.17429	-470.68384	80.32256	156.63745	-347.66220	34.43789	245.06750	-380.02966	24.55993	184.60408	-289.69553	26.03028	-175.19284	-408.83496	761.12195	-162.08257	-430.96930	590.92712	-149.14986	-365.01837	669.76733	-171.14197	-420.41470	675.35559	-156.82355	-452.28894	451.99463	-27.24192	-473.45413	428.69830	-107.25018	-414.62241	346.85022	-118.34422	-430.02704	177.16156	-171.85916	-443.50687	266.94574	-113.38209	-425.89578	261.21475	-171.07748	-485.22977	69.57878	-91.08907	-468.37479	79.21438	-130.70682	-535.89136	33.38126	-110.96935	-342.58163	29.86000	-193.13914	-376.27621	24.90321	-140.00189	-283.60159	25.13596	186.56770	-535.45856	38.85391	19.02968	-341.80566	1221.90503						 
